<svg width="20" height="20" viewBox="0 0 20 20" fill="none" xmlns="http://www.w3.org/2000/svg">
<path fill-rule="evenodd" clip-rule="evenodd" d="M1.04169 3.75C1.04169 3.40482 1.32151 3.125 1.66669 3.125H18.3334C18.6785 3.125 18.9584 3.40482 18.9584 3.75V16.25C18.9584 16.5952 18.6785 16.875 18.3334 16.875H1.66669C1.32151 16.875 1.04169 16.5952 1.04169 16.25V3.75ZM2.29169 4.375V15.625H17.7084V4.375H2.29169Z" fill="#BCBCBC"/>
<path fill-rule="evenodd" clip-rule="evenodd" d="M1.16672 3.37504C1.37383 3.09889 1.76558 3.04293 2.04172 3.25004L10.0001 9.21879L17.9584 3.25004C18.2345 3.04293 18.6263 3.09889 18.8334 3.37504C19.0405 3.65118 18.9845 4.04293 18.7084 4.25004L10.3751 10.5C10.1528 10.6667 9.84728 10.6667 9.62506 10.5L1.29172 4.25004C1.01558 4.04293 0.959617 3.65118 1.16672 3.37504Z" fill="#BCBCBC"/>
<path fill-rule="evenodd" clip-rule="evenodd" d="M1.04169 3.75C1.04169 3.40482 1.32151 3.125 1.66669 3.125H10C10.3452 3.125 10.625 3.40482 10.625 3.75C10.625 4.09518 10.3452 4.375 10 4.375H2.29169V10C2.29169 10.3452 2.01187 10.625 1.66669 10.625C1.32151 10.625 1.04169 10.3452 1.04169 10V3.75Z" fill="#BCBCBC"/>
<path fill-rule="evenodd" clip-rule="evenodd" d="M9.37502 3.75C9.37502 3.40482 9.65484 3.125 10 3.125H18.3334C18.6785 3.125 18.9584 3.40482 18.9584 3.75V10C18.9584 10.3452 18.6785 10.625 18.3334 10.625C17.9882 10.625 17.7084 10.3452 17.7084 10V4.375H10C9.65484 4.375 9.37502 4.09518 9.37502 3.75Z" fill="#BCBCBC"/>
</svg>
