<svg width="38" height="38" viewBox="0 0 38 38" fill="none" xmlns="http://www.w3.org/2000/svg">
<path d="M19 2.375C9.7375 2.375 2.375 9.7375 2.375 19C2.375 28.2625 9.7375 35.625 19 35.625C28.2625 35.625 35.625 28.2625 35.625 19C35.625 9.7375 28.2625 2.375 19 2.375ZM19 33.25C11.1625 33.25 4.75 26.8375 4.75 19C4.75 11.1625 11.1625 4.75 19 4.75C26.8375 4.75 33.25 11.1625 33.25 19C33.25 26.8375 26.8375 33.25 19 33.25Z" fill="black"/>
<path d="M25.4125 27.3125L19 20.9L12.5875 27.3125L10.6875 25.4125L17.1 19L10.6875 12.5875L12.5875 10.6875L19 17.1L25.4125 10.6875L27.3125 12.5875L20.9 19L27.3125 25.4125L25.4125 27.3125Z" fill="black"/>
</svg>
