<svg width="125" height="30" viewBox="0 0 125 30" fill="none" xmlns="http://www.w3.org/2000/svg">
<rect x="95" width="30" height="30" rx="5" fill="#F8B428"/>
<path d="M116.458 11.9906C116.468 12.1219 116.468 12.2531 116.468 12.3844C116.468 16.3875 113.374 21 107.721 21C105.979 21 104.361 20.5031 103 19.6406C103.247 19.6687 103.485 19.6781 103.742 19.6781C105.18 19.6781 106.503 19.2 107.559 18.3844C106.207 18.3563 105.075 17.4844 104.685 16.2844C104.875 16.3125 105.065 16.3312 105.265 16.3312C105.541 16.3312 105.817 16.2937 106.074 16.2281C104.666 15.9469 103.609 14.7281 103.609 13.2562V13.2188C104.018 13.4438 104.494 13.5844 104.999 13.6031C104.171 13.0593 103.628 12.1312 103.628 11.0812C103.628 10.5187 103.78 10.0031 104.047 9.55311C105.56 11.3906 107.835 12.5906 110.386 12.7219C110.338 12.4969 110.31 12.2625 110.31 12.0281C110.31 10.3594 111.68 9 113.384 9C114.269 9 115.069 9.36562 115.63 9.95625C116.325 9.82501 116.991 9.57187 117.581 9.225C117.353 9.92814 116.867 10.5188 116.23 10.8937C116.848 10.8281 117.448 10.6594 118 10.425C117.581 11.025 117.058 11.5593 116.458 11.9906V11.9906Z" fill="white"/>
<rect x="43" width="30" height="30" rx="5" fill="#F8B428"/>
<path d="M60.5196 15.8571L60.8681 13.3751H58.6893V11.7645C58.6893 11.0855 58.9936 10.4236 59.9695 10.4236H60.96V8.3105C60.96 8.3105 60.0611 8.14282 59.2017 8.14282C57.4074 8.14282 56.2345 9.33157 56.2345 11.4835V13.3751H54.24V15.8571H56.2345V21.8571H58.6893V15.8571H60.5196Z" fill="white"/>
<rect width="30" height="30" rx="5" fill="#F8B428"/>
<g clip-path="url(#clip0_1_102)">
<path d="M9.22329 21.0004H6.23786V11.6535H9.22329V21.0004ZM7.72896 10.3785C6.77432 10.3785 6 9.60979 6 8.68167C6 8.23586 6.18216 7.8083 6.5064 7.49307C6.83065 7.17783 7.27041 7.00073 7.72896 7.00073C8.18751 7.00073 8.62728 7.17783 8.95153 7.49307C9.27577 7.8083 9.45793 8.23586 9.45793 8.68167C9.45793 9.60979 8.68329 10.3785 7.72896 10.3785ZM20.3968 21.0004H17.4178V16.4504C17.4178 15.366 17.3953 13.9754 15.8656 13.9754C14.3134 13.9754 14.0756 15.1535 14.0756 16.3723V21.0004H11.0934V11.6535H13.9566V12.9285H13.9984C14.397 12.1942 15.3706 11.4192 16.8231 11.4192C19.8446 11.4192 20.4 13.3535 20.4 15.866V21.0004H20.3968Z" fill="white"/>
</g>
<defs>
<clipPath id="clip0_1_102">
<rect width="14.4" height="16" fill="white" transform="translate(6 7)"/>
</clipPath>
</defs>
</svg>
